# xmcd CD database file
#
# Track frame offsets:
#	150
#	483
#	22236
#	46442
#	58228
#	83058
#	103551
#	133833
#	159133
#	172529
#	202261
#	225421
#	247276
#
# Disc length: 3790 seconds
#
# Revision: 0
# Processed by: cddbd v1.5.1PL0 Copyright (c) Steve Scherf et al.
# Submitted via: CDex 1.51
#
DISCID=a50ecc0d
DTITLE=Bill Evans - Verve Jazz Masters 5
DYEAR=1900
DGENRE=Jazz
TTITLE0=Israel
TTITLE1=Here's That Rainy Day
TTITLE2=Just You, Just Me
TTITLE3=A Sleepin' Bee
TTITLE4=Let's Go Back To The Waltz
TTITLE5=Funkallero
TTITLE6=N.Y.C.'s No Lark
TTITLE7=Mother Of Earl
TTITLE8=Bemsha Swing
TTITLE9=Angel Face
TTITLE10=Alfie
TTITLE11=On Green Dolphin Street
TTITLE12=Quiet Now
EXTD=
EXTT0=
EXTT1=
EXTT2=
EXTT3=
EXTT4=
EXTT5=
EXTT6=
EXTT7=
EXTT8=
EXTT9=
EXTT10=
EXTT11=
EXTT12=
PLAYORDER=
